<svg width="48" height="49" viewBox="0 0 48 49" fill="none" xmlns="http://www.w3.org/2000/svg">
<g clip-path="url(#clip0_789_4129)">
<path d="M24 4.39258C29.434 4.39258 30.112 4.41258 32.244 4.51258C34.374 4.61258 35.824 4.94658 37.1 5.44258C38.42 5.95058 39.532 6.63858 40.644 7.74858C41.661 8.74837 42.4479 9.95776 42.95 11.2926C43.444 12.5666 43.78 14.0186 43.88 16.1486C43.974 18.2806 44 18.9586 44 24.3926C44 29.8266 43.98 30.5046 43.88 32.6366C43.78 34.7666 43.444 36.2166 42.95 37.4926C42.4494 38.8281 41.6622 40.0378 40.644 41.0366C39.6439 42.0532 38.4346 42.8401 37.1 43.3426C35.826 43.8366 34.374 44.1726 32.244 44.2726C30.112 44.3666 29.434 44.3926 24 44.3926C18.566 44.3926 17.888 44.3726 15.756 44.2726C13.626 44.1726 12.176 43.8366 10.9 43.3426C9.56465 42.8415 8.35505 42.0545 7.356 41.0366C6.33881 40.0369 5.55186 38.8275 5.05 37.4926C4.554 36.2186 4.22 34.7666 4.12 32.6366C4.026 30.5046 4 29.8266 4 24.3926C4 18.9586 4.02 18.2806 4.12 16.1486C4.22 14.0166 4.554 12.5686 5.05 11.2926C5.55047 9.95694 6.33761 8.74722 7.356 7.74858C8.35534 6.73104 9.56486 5.94404 10.9 5.44258C12.176 4.94658 13.624 4.61258 15.756 4.51258C17.888 4.41858 18.566 4.39258 24 4.39258ZM24 14.3926C21.3478 14.3926 18.8043 15.4461 16.9289 17.3215C15.0536 19.1969 14 21.7404 14 24.3926C14 27.0447 15.0536 29.5883 16.9289 31.4636C18.8043 33.339 21.3478 34.3926 24 34.3926C26.6522 34.3926 29.1957 33.339 31.0711 31.4636C32.9464 29.5883 34 27.0447 34 24.3926C34 21.7404 32.9464 19.1969 31.0711 17.3215C29.1957 15.4461 26.6522 14.3926 24 14.3926ZM37 13.8926C37 13.2295 36.7366 12.5937 36.2678 12.1248C35.7989 11.656 35.163 11.3926 34.5 11.3926C33.837 11.3926 33.2011 11.656 32.7322 12.1248C32.2634 12.5937 32 13.2295 32 13.8926C32 14.5556 32.2634 15.1915 32.7322 15.6603C33.2011 16.1292 33.837 16.3926 34.5 16.3926C35.163 16.3926 35.7989 16.1292 36.2678 15.6603C36.7366 15.1915 37 14.5556 37 13.8926ZM24 18.3926C25.5913 18.3926 27.1174 19.0247 28.2426 20.1499C29.3679 21.2752 30 22.8013 30 24.3926C30 25.9839 29.3679 27.51 28.2426 28.6352C27.1174 29.7604 25.5913 30.3926 24 30.3926C22.4087 30.3926 20.8826 29.7604 19.7574 28.6352C18.6321 27.51 18 25.9839 18 24.3926C18 22.8013 18.6321 21.2752 19.7574 20.1499C20.8826 19.0247 22.4087 18.3926 24 18.3926Z" fill="#9B5DE5"/>
</g>
<defs>
<clipPath id="clip0_789_4129">
<rect width="48" height="48" fill="white" transform="translate(0 0.392578)"/>
</clipPath>
</defs>
</svg>
