<svg width="48" height="49" viewBox="0 0 48 49" fill="none" xmlns="http://www.w3.org/2000/svg">
<g clip-path="url(#clip0_789_4128)">
<path d="M36.67 37.0706H31.34V28.7166C31.34 26.7246 31.3 24.1606 28.56 24.1606C25.782 24.1606 25.358 26.3286 25.358 28.5706V37.0706H20.026V19.8926H25.146V22.2326H25.216C25.932 20.8846 27.672 19.4586 30.272 19.4586C35.672 19.4586 36.672 23.0146 36.672 27.6406V37.0706H36.67ZM14.006 17.5426C13.5991 17.5431 13.1961 17.4633 12.8201 17.3078C12.4441 17.1523 12.1025 16.9241 11.8149 16.6362C11.5273 16.3484 11.2993 16.0067 11.144 15.6306C10.9887 15.2545 10.9092 14.8515 10.91 14.4446C10.9104 13.8322 11.0924 13.2338 11.4329 12.7249C11.7734 12.216 12.2572 11.8194 12.8231 11.5855C13.3889 11.3515 14.0115 11.2906 14.612 11.4105C15.2124 11.5303 15.7639 11.8255 16.1966 12.2588C16.6293 12.6921 16.9238 13.2439 17.0429 13.8445C17.162 14.4452 17.1003 15.0676 16.8656 15.6332C16.6309 16.1988 16.2337 16.6821 15.7244 17.0219C15.215 17.3618 14.6163 17.543 14.004 17.5426H14.006ZM16.678 37.0706H11.332V19.8926H16.68V37.0706H16.678ZM39.34 6.39258H8.658C7.186 6.39258 6 7.55258 6 8.98658V39.7986C6 41.2326 7.188 42.3926 8.656 42.3926H39.332C40.8 42.3926 42 41.2326 42 39.7986V8.98658C42 7.55258 40.8 6.39258 39.332 6.39258H39.338H39.34Z" fill="#9B5DE5"/>
</g>
<defs>
<clipPath id="clip0_789_4128">
<rect width="48" height="48" fill="white" transform="translate(0 0.392578)"/>
</clipPath>
</defs>
</svg>
