<svg width="34" height="34" viewBox="0 0 34 34" fill="none" xmlns="http://www.w3.org/2000/svg">
<path d="M28.9661 28.9737H23.9322V21.0838C23.9322 19.2025 23.8944 16.7809 21.3067 16.7809C18.683 16.7809 18.2826 18.8285 18.2826 20.9459V28.9737H13.2468V12.75H18.0823V14.96H18.1484C18.8247 13.6869 20.468 12.3401 22.9236 12.3401C28.0236 12.3401 28.968 15.6986 28.968 20.0676V28.9737H28.9661ZM7.56122 10.5306C7.17693 10.531 6.79632 10.4557 6.44121 10.3088C6.08609 10.162 5.76347 9.94644 5.49185 9.67453C5.22023 9.40272 5.00489 9.08 4.85822 8.7248C4.71155 8.36959 4.63647 7.98898 4.63722 7.60469C4.6376 7.02631 4.80949 6.46115 5.13107 5.98052C5.45266 5.4999 5.90958 5.12533 6.44404 4.90442C6.97841 4.68342 7.56642 4.62591 8.13356 4.73915C8.7006 4.85229 9.22146 5.13109 9.63012 5.54032C10.0388 5.94955 10.3169 6.47069 10.4294 7.03792C10.5419 7.60525 10.4836 8.19307 10.262 8.72725C10.0403 9.26143 9.66516 9.71788 9.18415 10.0388C8.70305 10.3598 8.13762 10.531 7.55933 10.5306H7.56122ZM10.0848 28.9737H5.03578V12.75H10.0867V28.9737H10.0848ZM31.4878 0H2.51033C1.12011 0 0 1.09556 0 2.44989V31.5501C0 32.9045 1.122 34 2.50844 34H31.4802C32.8667 34 34 32.9045 34 31.5501V2.44989C34 1.09556 32.8667 0 31.4802 0H31.4859H31.4878Z" fill="black"/>
</svg>
