<svg width="48" height="49" viewBox="0 0 48 49" fill="none" xmlns="http://www.w3.org/2000/svg">
<g clip-path="url(#clip0_789_4127)">
<path d="M44.3246 11.7046C42.7977 12.3799 41.1785 12.8235 39.5206 13.0206C41.2681 11.9754 42.576 10.3306 43.2006 8.39255C41.5606 9.36855 39.7626 10.0526 37.8886 10.4226C36.6298 9.07571 34.9613 8.18248 33.1425 7.88172C31.3237 7.58097 29.4565 7.88954 27.8311 8.75946C26.2058 9.62938 24.9134 11.0119 24.1548 12.6921C23.3963 14.3724 23.2141 16.2561 23.6366 18.0506C20.3108 17.8839 17.0573 17.0196 14.0872 15.5139C11.1171 14.0082 8.49685 11.8946 6.39659 9.31055C5.65317 10.5875 5.2625 12.039 5.26459 13.5166C5.26459 16.4166 6.74059 18.9786 8.98459 20.4786C7.65661 20.4367 6.35786 20.0781 5.19659 19.4326V19.5366C5.19699 21.468 5.86533 23.3398 7.08829 24.8347C8.31125 26.3296 10.0136 27.3555 11.9066 27.7386C10.6738 28.0726 9.38121 28.1219 8.12659 27.8826C8.66033 29.545 9.70061 30.999 11.1018 32.0408C12.5029 33.0826 14.1949 33.6601 15.9406 33.6926C14.2056 35.0552 12.2189 36.0625 10.0944 36.6569C7.96976 37.2513 5.74885 37.4211 3.55859 37.1566C7.38199 39.6154 11.8328 40.9208 16.3786 40.9166C31.7646 40.9166 40.1786 28.1706 40.1786 17.1166C40.1786 16.7566 40.1686 16.3926 40.1526 16.0366C41.7903 14.8529 43.2038 13.3866 44.3266 11.7066L44.3246 11.7046Z" fill="#9B5DE5"/>
</g>
<defs>
<clipPath id="clip0_789_4127">
<rect width="48" height="48" fill="white" transform="translate(0 0.392578)"/>
</clipPath>
</defs>
</svg>
