<svg width="41" height="33" viewBox="0 0 41 33" fill="none" xmlns="http://www.w3.org/2000/svg">
<path d="M40.4045 3.90006C38.8912 4.56937 37.2863 5.00903 35.6431 5.20439C37.3751 4.16845 38.6715 2.53824 39.2905 0.617373C37.6651 1.58472 35.883 2.2627 34.0256 2.62942C32.778 1.29447 31.1243 0.409165 29.3216 0.111072C27.5189 -0.187011 25.6683 0.118823 24.0573 0.981029C22.4464 1.84324 21.1655 3.2135 20.4136 4.8788C19.6618 6.5442 19.4812 8.4112 19.9 10.1898C16.6037 10.0246 13.379 9.16793 10.4353 7.67558C7.49149 6.18323 4.89447 4.08837 2.81284 1.52723C2.07601 2.79286 1.6888 4.23149 1.69087 5.69599C1.69087 8.57027 3.15379 11.1096 5.37789 12.5963C4.06168 12.5547 2.77445 12.1993 1.62348 11.5595V11.6626C1.62387 13.5769 2.28629 15.4321 3.4984 16.9137C4.71052 18.3954 6.39777 19.4122 8.27399 19.7919C7.05212 20.1229 5.77099 20.1718 4.5275 19.9346C5.0565 21.5823 6.08756 23.0234 7.47633 24.0559C8.865 25.0885 10.542 25.6609 12.2722 25.6931C10.5526 27.0436 8.58352 28.042 6.47786 28.6311C4.37206 29.2202 2.17084 29.3885 0 29.1264C3.7895 31.5634 8.20084 32.8572 12.7063 32.853C27.9559 32.853 36.2953 20.2201 36.2953 9.26407C36.2953 8.90726 36.2854 8.54649 36.2695 8.19364C37.8927 7.02044 39.2937 5.56714 40.4065 3.90204L40.4045 3.90006Z" fill="black"/>
</svg>
